<svg width="23" height="18" viewBox="0 0 23 18" fill="none" xmlns="http://www.w3.org/2000/svg">
<path d="M22.9628 13.8479C22.0843 10.4992 19.3493 5.83363 11.0771 4.84798V1.89508C11.0771 1.2795 10.6603 0.724843 10.024 0.490164C9.3877 0.255033 8.6555 0.386814 8.16956 0.822777L0.658394 7.57387C-0.219128 8.36275 -0.219633 9.63725 0.65789 10.4261L8.16956 17.1772C8.6545 17.6132 9.3882 17.745 10.0245 17.5098C10.6608 17.2747 11.0776 16.7201 11.0776 16.1049V13.2477C13.8999 13.2509 17.9686 13.583 20.8631 15.1942C21.344 15.4623 21.9571 15.4447 22.4173 15.1486C22.8765 14.8543 23.0925 14.3408 22.9628 13.8479Z" fill="#FFF8E8"/>
</svg>
