<svg width="45" height="45" viewBox="0 0 45 45" fill="none" xmlns="http://www.w3.org/2000/svg">
<g id="Group 5">
<path id="Vector" fill-rule="evenodd" clip-rule="evenodd" d="M22.7358 35.4717C29.7696 35.4717 35.4717 29.7696 35.4717 22.7358C35.4717 15.702 29.7696 10 22.7358 10C15.702 10 10 15.702 10 22.7358C10 29.7696 15.702 35.4717 22.7358 35.4717ZM22.7358 31.2264C27.425 31.2264 31.2264 27.425 31.2264 22.7358C31.2264 18.0466 27.425 14.2453 22.7358 14.2453C18.0466 14.2453 14.2453 18.0466 14.2453 22.7358C14.2453 27.425 18.0466 31.2264 22.7358 31.2264Z" fill="#F7EED3"/>
<path id="Vector_2" d="M36.0849 6.79248C34.9126 6.79248 33.9623 7.74283 33.9623 8.91512C33.9623 10.0874 34.9126 11.0378 36.0849 11.0378C37.2572 11.0378 38.2075 10.0874 38.2075 8.91512C38.2075 7.74283 37.2572 6.79248 36.0849 6.79248Z" fill="#F7EED3"/>
<path id="Vector_3" fill-rule="evenodd" clip-rule="evenodd" d="M1.33765 6.70103C0 9.32631 0 12.763 0 19.6364V25.3636C0 32.237 0 35.6737 1.33765 38.2989C2.51427 40.6082 4.39175 42.4857 6.70103 43.6623C9.32631 45 12.763 45 19.6364 45H25.3636C32.237 45 35.6737 45 38.2989 43.6623C40.6082 42.4857 42.4857 40.6082 43.6623 38.2989C45 35.6737 45 32.237 45 25.3636V19.6364C45 12.763 45 9.32631 43.6623 6.70103C42.4857 4.39175 40.6082 2.51427 38.2989 1.33765C35.6737 0 32.237 0 25.3636 0H19.6364C12.763 0 9.32631 0 6.70103 1.33765C4.39175 2.51427 2.51427 4.39175 1.33765 6.70103ZM25.3636 4.09091H19.6364C16.1322 4.09091 13.7501 4.0941 11.9088 4.24452C10.1153 4.39106 9.19808 4.65666 8.55826 4.98267C7.01875 5.7671 5.7671 7.01875 4.98267 8.55826C4.65666 9.19808 4.39106 10.1153 4.24452 11.9088C4.0941 13.7501 4.09091 16.1322 4.09091 19.6364V25.3636C4.09091 28.8679 4.0941 31.2498 4.24452 33.0912C4.39106 34.8848 4.65666 35.802 4.98267 36.4418C5.7671 37.9812 7.01875 39.2328 8.55826 40.0173C9.19808 40.3433 10.1153 40.609 11.9088 40.7555C13.7501 40.9058 16.1322 40.9091 19.6364 40.9091H25.3636C28.8679 40.9091 31.2498 40.9058 33.0912 40.7555C34.8848 40.609 35.802 40.3433 36.4418 40.0173C37.9812 39.2328 39.2328 37.9812 40.0173 36.4418C40.3433 35.802 40.609 34.8848 40.7555 33.0912C40.9058 31.2498 40.9091 28.8679 40.9091 25.3636V19.6364C40.9091 16.1322 40.9058 13.7501 40.7555 11.9088C40.609 10.1153 40.3433 9.19808 40.0173 8.55826C39.2328 7.01875 37.9812 5.7671 36.4418 4.98267C35.802 4.65666 34.8848 4.39106 33.0912 4.24452C31.2498 4.0941 28.8679 4.09091 25.3636 4.09091Z" fill="#F7EED3"/>
</g>
</svg>
