<svg width="30" height="30" viewBox="0 0 30 30" fill="none" xmlns="http://www.w3.org/2000/svg">
<g id="paw_svgrepo.com">
<path id="Vector" d="M9.46331 19.2204C11.4454 15.185 12.4365 13.1674 13.863 12.6866C14.6012 12.4378 15.3987 12.4378 16.137 12.6866C17.5635 13.1674 18.5546 15.185 20.5367 19.2204L21.6351 21.4566C22.1471 22.499 22.4031 23.0202 22.4637 23.3754C22.7152 24.8487 21.6252 26.2067 20.1567 26.2495C19.8027 26.2599 19.25 26.1084 18.1445 25.8054C17.5126 25.6322 17.1967 25.5456 16.8809 25.4817C15.6391 25.2304 14.3609 25.2304 13.1191 25.4817C12.8032 25.5456 12.4873 25.6322 11.8556 25.8054C10.75 26.1084 10.1972 26.2599 9.84322 26.2495C8.37475 26.2067 7.2847 24.8487 7.5362 23.3754C7.59682 23.0202 7.85283 22.499 8.36486 21.4566L9.46331 19.2204Z" fill="#674636" stroke="#674636" stroke-width="3"/>
<path id="Vector_2" d="M7.68096 6.90933C8.19574 8.94778 9.65131 10.3051 10.9321 9.94094C12.2128 9.5768 12.8337 7.62913 12.319 5.59068C11.8043 3.55223 10.3487 2.19493 9.06792 2.55906C7.78716 2.9232 7.1662 4.87088 7.68096 6.90933Z" fill="#674636" stroke="#674636" stroke-width="3"/>
<path id="Vector_3" d="M22.319 6.90933C21.8042 8.94778 20.3487 10.3051 19.0679 9.94094C17.7871 9.5768 17.1662 7.62913 17.681 5.59068C18.1957 3.55223 19.6512 2.19493 20.9321 2.55906C22.2129 2.9232 22.8337 4.87088 22.319 6.90933Z" fill="#674636" stroke="#674636" stroke-width="3"/>
<path id="Vector_4" d="M2.75207 15.3714C3.31457 16.8776 4.6371 17.7926 5.706 17.4149C6.77491 17.0373 7.18542 15.5099 6.62292 14.0036C6.06042 12.4973 4.7379 11.5824 3.669 11.9601C2.60009 12.3378 2.18957 13.8651 2.75207 15.3714Z" fill="#674636" stroke="#674636" stroke-width="3"/>
<path id="Vector_5" d="M27.2479 15.3714C26.6854 16.8776 25.3629 17.7926 24.294 17.4149C23.2251 17.0373 22.8146 15.5099 23.3771 14.0036C23.9396 12.4973 25.2621 11.5824 26.331 11.9601C27.3999 12.3378 27.8104 13.8651 27.2479 15.3714Z" fill="#674636" stroke="#674636" stroke-width="3"/>
</g>
</svg>
