<svg width="25" height="25" viewBox="0 0 25 25" fill="none" xmlns="http://www.w3.org/2000/svg">
<path d="M7.88609 16.017C9.53786 12.6542 10.3637 10.9728 11.5525 10.5722C12.1677 10.3648 12.8323 10.3648 13.4475 10.5722C14.6362 10.9728 15.4622 12.6542 17.114 16.017L18.0293 17.8805C18.4559 18.7492 18.6693 19.1836 18.7198 19.4795C18.9294 20.7073 18.021 21.839 16.7973 21.8746C16.5023 21.8832 16.0417 21.757 15.1204 21.5045C14.5939 21.3602 14.3306 21.288 14.0674 21.2348C13.0326 21.0253 11.9674 21.0253 10.9326 21.2348C10.6694 21.288 10.4061 21.3602 9.87963 21.5045C8.95833 21.757 8.49767 21.8832 8.20269 21.8746C6.97896 21.839 6.07058 20.7073 6.28016 19.4795C6.33069 19.1836 6.54403 18.7492 6.97072 17.8805L7.88609 16.017Z" fill="#AAB396" stroke="#AAB396" stroke-width="2"/>
<path d="M6.4008 5.75778C6.82978 7.45649 8.04276 8.58757 9.11006 8.28413C10.1774 7.98068 10.6948 6.35761 10.2659 4.65891C9.83688 2.9602 8.62391 1.82912 7.5566 2.13256C6.4893 2.43601 5.97183 4.05907 6.4008 5.75778Z" fill="#AAB396" stroke="#AAB396" stroke-width="2"/>
<path d="M18.5992 5.75778C18.1702 7.45649 16.9573 8.58757 15.8899 8.28413C14.8226 7.98068 14.3052 6.35761 14.7342 4.65891C15.1631 2.9602 16.3761 1.82912 17.4435 2.13256C18.5107 2.43601 19.0281 4.05907 18.5992 5.75778Z" fill="#AAB396" stroke="#AAB396" stroke-width="2"/>
<path d="M2.29343 12.8095C2.76218 14.0647 3.86429 14.8272 4.75504 14.5124C5.6458 14.1977 5.98789 12.9249 5.51914 11.6697C5.05039 10.4144 3.94829 9.65201 3.05754 9.96676C2.16678 10.2815 1.82468 11.5543 2.29343 12.8095Z" fill="#AAB396" stroke="#AAB396" stroke-width="2"/>
<path d="M22.7066 12.8095C22.2378 14.0647 21.1357 14.8272 20.245 14.5124C19.3543 14.1977 19.0122 12.9249 19.4809 11.6697C19.9497 10.4144 21.0518 9.65201 21.9425 9.96676C22.8332 10.2815 23.1753 11.5543 22.7066 12.8095Z" fill="#AAB396" stroke="#AAB396" stroke-width="2"/>
</svg>
