<svg width="29" height="18" viewBox="0 0 29 18" fill="none" xmlns="http://www.w3.org/2000/svg">
<g id="Group 6">
<path id="Vector" d="M22.8094 17.9388C22.7251 17.9388 14.5876 17.8075 14.5876 6.79189C14.5833 5.55606 14.9175 4.34266 15.5539 3.28327C16.1903 2.22387 17.1046 1.35892 18.1976 0.782211C19.2906 0.205499 20.5207 -0.0609636 21.7544 0.011718C22.9881 0.0843996 24.1783 0.493451 25.1961 1.19452C26.2138 1.89558 27.0202 2.8619 27.5278 3.98869C28.0353 5.11548 28.2248 6.35972 28.0754 7.58651C27.9261 8.81329 27.4438 9.97579 26.6808 10.9479C25.9178 11.9201 24.9031 12.6648 23.7469 13.1013V17.0013C23.7469 17.2499 23.6482 17.4884 23.4724 17.6642C23.2965 17.84 23.0581 17.9388 22.8094 17.9388ZM26.2501 6.79189C26.2501 5.49399 25.7345 4.24924 24.8167 3.33148C23.899 2.41373 22.6542 1.89814 21.3563 1.89814C20.0584 1.89814 18.8137 2.41373 17.8959 3.33148C16.9782 4.24924 16.4626 5.49399 16.4626 6.79189C16.4626 13.8231 20.1001 15.52 21.8719 15.9325V12.4169C21.8652 12.204 21.9312 11.9951 22.059 11.8247C22.1868 11.6543 22.3688 11.5325 22.5751 11.4794C23.6188 11.2127 24.5451 10.6084 25.2098 9.76065C25.8744 8.91286 26.2402 7.86912 26.2501 6.79189Z" fill="#674636"/>
<path id="Vector_2" d="M8.23128 17.9386C8.14691 17.9386 2.86102e-05 17.8074 2.86102e-05 6.79176C-0.00354671 5.55651 0.330973 4.34383 0.967344 3.2851C1.60372 2.22637 2.51768 1.36198 3.6102 0.785558C4.70273 0.209139 5.93216 -0.0573216 7.1653 0.0150456C8.39843 0.0874128 9.58826 0.495848 10.6059 1.1961C11.6235 1.89635 12.43 2.86172 12.9382 3.98761C13.4464 5.11351 13.6368 6.35699 13.4887 7.58335C13.3407 8.80971 12.8599 9.97218 12.0984 10.9448C11.3369 11.9174 10.3238 12.6631 9.16878 13.1011V17.0011C9.16878 17.2498 9.07001 17.4882 8.89419 17.6641C8.71838 17.8399 8.47992 17.9386 8.23128 17.9386ZM11.6625 6.79176C11.6625 5.49386 11.1469 4.24912 10.2292 3.33136C9.31143 2.4136 8.06668 1.89801 6.76878 1.89801C5.47088 1.89801 4.22613 2.4136 3.30838 3.33136C2.39062 4.24912 1.87503 5.49386 1.87503 6.79176C1.87503 13.823 5.5219 15.5199 7.29378 15.9324V12.4168C7.28704 12.2039 7.35301 11.995 7.48081 11.8246C7.60861 11.6542 7.79064 11.5324 7.99691 11.4793C9.03891 11.2108 9.9631 10.6058 10.6259 9.75816C11.2888 8.91054 11.6532 7.86775 11.6625 6.79176Z" fill="#674636"/>
</g>
</svg>
